<svg width="384" height="385" viewBox="0 0 384 385" fill="none" xmlns="http://www.w3.org/2000/svg">
<rect y="0.701172" width="384" height="384" rx="16" fill="url(#paint0_linear)"/>
<rect x="1" y="1.70117" width="382" height="382" rx="15" stroke="#FB3B00" stroke-opacity="0.2" stroke-width="2"/>
<path d="M137.061 317.978C136.072 317.978 135.176 317.763 134.373 317.334C133.58 316.895 132.954 316.293 132.497 315.528C132.049 314.763 131.825 313.899 131.825 312.938C131.825 311.977 132.054 311.113 132.511 310.348C132.968 309.583 133.594 308.985 134.387 308.556C135.19 308.117 136.086 307.898 137.075 307.898C137.878 307.898 138.61 308.038 139.273 308.318C139.936 308.598 140.496 309.004 140.953 309.536L139.777 310.642C139.068 309.877 138.195 309.494 137.159 309.494C136.487 309.494 135.885 309.643 135.353 309.942C134.821 310.231 134.406 310.637 134.107 311.16C133.808 311.683 133.659 312.275 133.659 312.938C133.659 313.601 133.808 314.193 134.107 314.716C134.406 315.239 134.821 315.649 135.353 315.948C135.885 316.237 136.487 316.382 137.159 316.382C138.195 316.382 139.068 315.995 139.777 315.22L140.953 316.34C140.496 316.872 139.931 317.278 139.259 317.558C138.596 317.838 137.864 317.978 137.061 317.978ZM142.529 307.45H144.279V317.838H142.529V307.45ZM146.576 310.362H148.326V317.838H146.576V310.362ZM147.458 309.13C147.14 309.13 146.874 309.032 146.66 308.836C146.445 308.631 146.338 308.379 146.338 308.08C146.338 307.781 146.445 307.534 146.66 307.338C146.874 307.133 147.14 307.03 147.458 307.03C147.775 307.03 148.041 307.128 148.256 307.324C148.47 307.511 148.578 307.749 148.578 308.038C148.578 308.346 148.47 308.607 148.256 308.822C148.05 309.027 147.784 309.13 147.458 309.13ZM157.931 310.362V320.554H156.181V316.928C155.593 317.6 154.795 317.936 153.787 317.936C153.059 317.936 152.405 317.777 151.827 317.46C151.257 317.143 150.809 316.695 150.483 316.116C150.165 315.537 150.007 314.865 150.007 314.1C150.007 313.344 150.17 312.677 150.497 312.098C150.823 311.519 151.271 311.071 151.841 310.754C152.41 310.437 153.059 310.278 153.787 310.278C154.3 310.278 154.767 310.367 155.187 310.544C155.616 310.721 155.975 310.987 156.265 311.342V310.362H157.931ZM153.983 316.438C154.627 316.438 155.159 316.223 155.579 315.794C155.999 315.365 156.209 314.8 156.209 314.1C156.209 313.4 155.999 312.835 155.579 312.406C155.159 311.977 154.627 311.762 153.983 311.762C153.339 311.762 152.807 311.977 152.387 312.406C151.976 312.835 151.771 313.4 151.771 314.1C151.771 314.8 151.976 315.365 152.387 315.794C152.807 316.223 153.339 316.438 153.983 316.438ZM167.458 310.362V317.838H165.792V316.886C165.512 317.222 165.162 317.483 164.742 317.67C164.322 317.847 163.87 317.936 163.384 317.936C162.386 317.936 161.597 317.661 161.018 317.11C160.449 316.55 160.164 315.724 160.164 314.632V310.362H161.914V314.394C161.914 315.066 162.064 315.57 162.362 315.906C162.67 316.233 163.104 316.396 163.664 316.396C164.29 316.396 164.784 316.205 165.148 315.822C165.522 315.43 165.708 314.87 165.708 314.142V310.362H167.458ZM176.778 314.142C176.778 314.263 176.768 314.436 176.75 314.66H170.884C170.986 315.211 171.252 315.649 171.682 315.976C172.12 316.293 172.662 316.452 173.306 316.452C174.127 316.452 174.804 316.181 175.336 315.64L176.274 316.718C175.938 317.119 175.513 317.423 175 317.628C174.486 317.833 173.908 317.936 173.264 317.936C172.442 317.936 171.719 317.773 171.094 317.446C170.468 317.119 169.983 316.667 169.638 316.088C169.302 315.5 169.134 314.837 169.134 314.1C169.134 313.372 169.297 312.719 169.624 312.14C169.96 311.552 170.422 311.095 171.01 310.768C171.598 310.441 172.26 310.278 172.998 310.278C173.726 310.278 174.374 310.441 174.944 310.768C175.522 311.085 175.97 311.538 176.288 312.126C176.614 312.705 176.778 313.377 176.778 314.142ZM172.998 311.678C172.438 311.678 171.962 311.846 171.57 312.182C171.187 312.509 170.954 312.947 170.87 313.498H175.112C175.037 312.957 174.808 312.518 174.426 312.182C174.043 311.846 173.567 311.678 172.998 311.678ZM185.688 317.936C184.932 317.936 184.25 317.773 183.644 317.446C183.037 317.119 182.561 316.667 182.216 316.088C181.88 315.5 181.712 314.837 181.712 314.1C181.712 313.363 181.88 312.705 182.216 312.126C182.561 311.547 183.037 311.095 183.644 310.768C184.25 310.441 184.932 310.278 185.688 310.278C186.453 310.278 187.139 310.441 187.746 310.768C188.352 311.095 188.824 311.547 189.16 312.126C189.505 312.705 189.678 313.363 189.678 314.1C189.678 314.837 189.505 315.5 189.16 316.088C188.824 316.667 188.352 317.119 187.746 317.446C187.139 317.773 186.453 317.936 185.688 317.936ZM185.688 316.438C186.332 316.438 186.864 316.223 187.284 315.794C187.704 315.365 187.914 314.8 187.914 314.1C187.914 313.4 187.704 312.835 187.284 312.406C186.864 311.977 186.332 311.762 185.688 311.762C185.044 311.762 184.512 311.977 184.092 312.406C183.681 312.835 183.476 313.4 183.476 314.1C183.476 314.8 183.681 315.365 184.092 315.794C184.512 316.223 185.044 316.438 185.688 316.438ZM198.589 310.362V317.838H196.923V316.886C196.643 317.222 196.293 317.483 195.873 317.67C195.453 317.847 195 317.936 194.515 317.936C193.516 317.936 192.728 317.661 192.149 317.11C191.58 316.55 191.295 315.724 191.295 314.632V310.362H193.045V314.394C193.045 315.066 193.194 315.57 193.493 315.906C193.801 316.233 194.235 316.396 194.795 316.396C195.42 316.396 195.915 316.205 196.279 315.822C196.652 315.43 196.839 314.87 196.839 314.142V310.362H198.589ZM207.606 310.278C208.707 310.278 209.547 310.544 210.126 311.076C210.714 311.599 211.008 312.392 211.008 313.456V317.838H209.356V316.928C209.141 317.255 208.833 317.507 208.432 317.684C208.04 317.852 207.564 317.936 207.004 317.936C206.444 317.936 205.954 317.843 205.534 317.656C205.114 317.46 204.787 317.194 204.554 316.858C204.33 316.513 204.218 316.125 204.218 315.696C204.218 315.024 204.465 314.487 204.96 314.086C205.464 313.675 206.252 313.47 207.326 313.47H209.258V313.358C209.258 312.835 209.099 312.434 208.782 312.154C208.474 311.874 208.012 311.734 207.396 311.734C206.976 311.734 206.56 311.799 206.15 311.93C205.748 312.061 205.408 312.243 205.128 312.476L204.442 311.202C204.834 310.903 205.305 310.675 205.856 310.516C206.406 310.357 206.99 310.278 207.606 310.278ZM207.368 316.662C207.806 316.662 208.194 316.564 208.53 316.368C208.875 316.163 209.118 315.873 209.258 315.5V314.632H207.452C206.444 314.632 205.94 314.963 205.94 315.626C205.94 315.943 206.066 316.195 206.318 316.382C206.57 316.569 206.92 316.662 207.368 316.662ZM214.919 311.454C215.423 310.67 216.31 310.278 217.579 310.278V311.944C217.43 311.916 217.295 311.902 217.173 311.902C216.492 311.902 215.96 312.103 215.577 312.504C215.195 312.896 215.003 313.465 215.003 314.212V317.838H213.253V310.362H214.919V311.454ZM220.73 311.454C221.234 310.67 222.121 310.278 223.39 310.278V311.944C223.241 311.916 223.105 311.902 222.984 311.902C222.303 311.902 221.771 312.103 221.388 312.504C221.005 312.896 220.814 313.465 220.814 314.212V317.838H219.064V310.362H220.73V311.454ZM227.69 310.278C228.791 310.278 229.631 310.544 230.21 311.076C230.798 311.599 231.092 312.392 231.092 313.456V317.838H229.44V316.928C229.225 317.255 228.917 317.507 228.516 317.684C228.124 317.852 227.648 317.936 227.088 317.936C226.528 317.936 226.038 317.843 225.618 317.656C225.198 317.46 224.871 317.194 224.638 316.858C224.414 316.513 224.302 316.125 224.302 315.696C224.302 315.024 224.549 314.487 225.044 314.086C225.548 313.675 226.336 313.47 227.41 313.47H229.342V313.358C229.342 312.835 229.183 312.434 228.866 312.154C228.558 311.874 228.096 311.734 227.48 311.734C227.06 311.734 226.644 311.799 226.234 311.93C225.832 312.061 225.492 312.243 225.212 312.476L224.526 311.202C224.918 310.903 225.389 310.675 225.94 310.516C226.49 310.357 227.074 310.278 227.69 310.278ZM227.452 316.662C227.89 316.662 228.278 316.564 228.614 316.368C228.959 316.163 229.202 315.873 229.342 315.5V314.632H227.536C226.528 314.632 226.024 314.963 226.024 315.626C226.024 315.943 226.15 316.195 226.402 316.382C226.654 316.569 227.004 316.662 227.452 316.662ZM235.647 317.936C235.041 317.936 234.448 317.857 233.869 317.698C233.291 317.539 232.829 317.339 232.483 317.096L233.155 315.766C233.491 315.99 233.893 316.172 234.359 316.312C234.835 316.443 235.302 316.508 235.759 316.508C236.805 316.508 237.327 316.233 237.327 315.682C237.327 315.421 237.192 315.239 236.921 315.136C236.66 315.033 236.235 314.935 235.647 314.842C235.031 314.749 234.527 314.641 234.135 314.52C233.753 314.399 233.417 314.189 233.127 313.89C232.847 313.582 232.707 313.157 232.707 312.616C232.707 311.907 233.001 311.342 233.589 310.922C234.187 310.493 234.989 310.278 235.997 310.278C236.511 310.278 237.024 310.339 237.537 310.46C238.051 310.572 238.471 310.726 238.797 310.922L238.125 312.252C237.491 311.879 236.777 311.692 235.983 311.692C235.47 311.692 235.078 311.771 234.807 311.93C234.546 312.079 234.415 312.28 234.415 312.532C234.415 312.812 234.555 313.013 234.835 313.134C235.125 313.246 235.568 313.353 236.165 313.456C236.763 313.549 237.253 313.657 237.635 313.778C238.018 313.899 238.345 314.105 238.615 314.394C238.895 314.683 239.035 315.094 239.035 315.626C239.035 316.326 238.732 316.886 238.125 317.306C237.519 317.726 236.693 317.936 235.647 317.936ZM245.037 317.432C244.831 317.6 244.579 317.726 244.281 317.81C243.991 317.894 243.683 317.936 243.357 317.936C242.535 317.936 241.901 317.721 241.453 317.292C241.005 316.863 240.781 316.237 240.781 315.416V311.818H239.549V310.418H240.781V308.71H242.531V310.418H244.533V311.818H242.531V315.374C242.531 315.738 242.619 316.018 242.797 316.214C242.974 316.401 243.231 316.494 243.567 316.494C243.959 316.494 244.285 316.391 244.547 316.186L245.037 317.432ZM253.258 314.142C253.258 314.263 253.249 314.436 253.23 314.66H247.364C247.467 315.211 247.733 315.649 248.162 315.976C248.601 316.293 249.142 316.452 249.786 316.452C250.607 316.452 251.284 316.181 251.816 315.64L252.754 316.718C252.418 317.119 251.993 317.423 251.48 317.628C250.967 317.833 250.388 317.936 249.744 317.936C248.923 317.936 248.199 317.773 247.574 317.446C246.949 317.119 246.463 316.667 246.118 316.088C245.782 315.5 245.614 314.837 245.614 314.1C245.614 313.372 245.777 312.719 246.104 312.14C246.44 311.552 246.902 311.095 247.49 310.768C248.078 310.441 248.741 310.278 249.478 310.278C250.206 310.278 250.855 310.441 251.424 310.768C252.003 311.085 252.451 311.538 252.768 312.126C253.095 312.705 253.258 313.377 253.258 314.142ZM249.478 311.678C248.918 311.678 248.442 311.846 248.05 312.182C247.667 312.509 247.434 312.947 247.35 313.498H251.592C251.517 312.957 251.289 312.518 250.906 312.182C250.523 311.846 250.047 311.678 249.478 311.678ZM95.499 331.278C96.227 331.278 96.8757 331.437 97.445 331.754C98.0237 332.071 98.4764 332.519 98.803 333.098C99.1297 333.677 99.293 334.344 99.293 335.1C99.293 335.856 99.1297 336.528 98.803 337.116C98.4764 337.695 98.0237 338.143 97.445 338.46C96.8757 338.777 96.227 338.936 95.499 338.936C94.491 338.936 93.693 338.6 93.105 337.928V341.554H91.355V331.362H93.021V332.342C93.3104 331.987 93.665 331.721 94.085 331.544C94.5144 331.367 94.9857 331.278 95.499 331.278ZM95.303 337.438C95.947 337.438 96.4744 337.223 96.885 336.794C97.305 336.365 97.515 335.8 97.515 335.1C97.515 334.4 97.305 333.835 96.885 333.406C96.4744 332.977 95.947 332.762 95.303 332.762C94.883 332.762 94.505 332.86 94.169 333.056C93.833 333.243 93.567 333.513 93.371 333.868C93.175 334.223 93.077 334.633 93.077 335.1C93.077 335.567 93.175 335.977 93.371 336.332C93.567 336.687 93.833 336.962 94.169 337.158C94.505 337.345 94.883 337.438 95.303 337.438ZM103.713 331.278C104.814 331.278 105.654 331.544 106.233 332.076C106.821 332.599 107.115 333.392 107.115 334.456V338.838H105.463V337.928C105.248 338.255 104.94 338.507 104.539 338.684C104.147 338.852 103.671 338.936 103.111 338.936C102.551 338.936 102.061 338.843 101.641 338.656C101.221 338.46 100.894 338.194 100.661 337.858C100.437 337.513 100.325 337.125 100.325 336.696C100.325 336.024 100.572 335.487 101.067 335.086C101.571 334.675 102.36 334.47 103.433 334.47H105.365V334.358C105.365 333.835 105.206 333.434 104.889 333.154C104.581 332.874 104.119 332.734 103.503 332.734C103.083 332.734 102.668 332.799 102.257 332.93C101.856 333.061 101.515 333.243 101.235 333.476L100.549 332.202C100.941 331.903 101.412 331.675 101.963 331.516C102.514 331.357 103.097 331.278 103.713 331.278ZM103.475 337.662C103.914 337.662 104.301 337.564 104.637 337.368C104.982 337.163 105.225 336.873 105.365 336.5V335.632H103.559C102.551 335.632 102.047 335.963 102.047 336.626C102.047 336.943 102.173 337.195 102.425 337.382C102.677 337.569 103.027 337.662 103.475 337.662ZM111.027 332.454C111.531 331.67 112.418 331.278 113.687 331.278V332.944C113.538 332.916 113.402 332.902 113.281 332.902C112.6 332.902 112.068 333.103 111.685 333.504C111.302 333.896 111.111 334.465 111.111 335.212V338.838H109.361V331.362H111.027V332.454ZM117.986 331.278C119.088 331.278 119.928 331.544 120.506 332.076C121.094 332.599 121.388 333.392 121.388 334.456V338.838H119.736V337.928C119.522 338.255 119.214 338.507 118.812 338.684C118.42 338.852 117.944 338.936 117.384 338.936C116.824 338.936 116.334 338.843 115.914 338.656C115.494 338.46 115.168 338.194 114.934 337.858C114.71 337.513 114.598 337.125 114.598 336.696C114.598 336.024 114.846 335.487 115.34 335.086C115.844 334.675 116.633 334.47 117.706 334.47H119.638V334.358C119.638 333.835 119.48 333.434 119.162 333.154C118.854 332.874 118.392 332.734 117.776 332.734C117.356 332.734 116.941 332.799 116.53 332.93C116.129 333.061 115.788 333.243 115.508 333.476L114.822 332.202C115.214 331.903 115.686 331.675 116.236 331.516C116.787 331.357 117.37 331.278 117.986 331.278ZM117.748 337.662C118.187 337.662 118.574 337.564 118.91 337.368C119.256 337.163 119.498 336.873 119.638 336.5V335.632H117.832C116.824 335.632 116.32 335.963 116.32 336.626C116.32 336.943 116.446 337.195 116.698 337.382C116.95 337.569 117.3 337.662 117.748 337.662ZM130.359 331.278C131.461 331.278 132.301 331.544 132.879 332.076C133.467 332.599 133.761 333.392 133.761 334.456V338.838H132.109V337.928C131.895 338.255 131.587 338.507 131.185 338.684C130.793 338.852 130.317 338.936 129.757 338.936C129.197 338.936 128.707 338.843 128.287 338.656C127.867 338.46 127.541 338.194 127.307 337.858C127.083 337.513 126.971 337.125 126.971 336.696C126.971 336.024 127.219 335.487 127.713 335.086C128.217 334.675 129.006 334.47 130.079 334.47H132.011V334.358C132.011 333.835 131.853 333.434 131.535 333.154C131.227 332.874 130.765 332.734 130.149 332.734C129.729 332.734 129.314 332.799 128.903 332.93C128.502 333.061 128.161 333.243 127.881 333.476L127.195 332.202C127.587 331.903 128.059 331.675 128.609 331.516C129.16 331.357 129.743 331.278 130.359 331.278ZM130.121 337.662C130.56 337.662 130.947 337.564 131.283 337.368C131.629 337.163 131.871 336.873 132.011 336.5V335.632H130.205C129.197 335.632 128.693 335.963 128.693 336.626C128.693 336.943 128.819 337.195 129.071 337.382C129.323 337.569 129.673 337.662 130.121 337.662ZM143.398 328.45V338.838H141.718V337.872C141.428 338.227 141.069 338.493 140.64 338.67C140.22 338.847 139.753 338.936 139.24 338.936C138.521 338.936 137.872 338.777 137.294 338.46C136.724 338.143 136.276 337.695 135.95 337.116C135.623 336.528 135.46 335.856 135.46 335.1C135.46 334.344 135.623 333.677 135.95 333.098C136.276 332.519 136.724 332.071 137.294 331.754C137.872 331.437 138.521 331.278 139.24 331.278C139.734 331.278 140.187 331.362 140.598 331.53C141.008 331.698 141.358 331.95 141.648 332.286V328.45H143.398ZM139.45 337.438C139.87 337.438 140.248 337.345 140.584 337.158C140.92 336.962 141.186 336.687 141.382 336.332C141.578 335.977 141.676 335.567 141.676 335.1C141.676 334.633 141.578 334.223 141.382 333.868C141.186 333.513 140.92 333.243 140.584 333.056C140.248 332.86 139.87 332.762 139.45 332.762C139.03 332.762 138.652 332.86 138.316 333.056C137.98 333.243 137.714 333.513 137.518 333.868C137.322 334.223 137.224 334.633 137.224 335.1C137.224 335.567 137.322 335.977 137.518 336.332C137.714 336.687 137.98 336.962 138.316 337.158C138.652 337.345 139.03 337.438 139.45 337.438ZM145.687 331.362H147.437V338.838H145.687V331.362ZM146.569 330.13C146.252 330.13 145.986 330.032 145.771 329.836C145.556 329.631 145.449 329.379 145.449 329.08C145.449 328.781 145.556 328.534 145.771 328.338C145.986 328.133 146.252 328.03 146.569 328.03C146.886 328.03 147.152 328.128 147.367 328.324C147.582 328.511 147.689 328.749 147.689 329.038C147.689 329.346 147.582 329.607 147.367 329.822C147.162 330.027 146.896 330.13 146.569 330.13ZM153.164 338.936C152.389 338.936 151.694 338.773 151.078 338.446C150.462 338.119 149.981 337.667 149.636 337.088C149.291 336.5 149.118 335.837 149.118 335.1C149.118 334.363 149.291 333.705 149.636 333.126C149.981 332.547 150.457 332.095 151.064 331.768C151.68 331.441 152.38 331.278 153.164 331.278C153.901 331.278 154.545 331.427 155.096 331.726C155.656 332.025 156.076 332.454 156.356 333.014L155.012 333.798C154.797 333.453 154.527 333.196 154.2 333.028C153.883 332.851 153.533 332.762 153.15 332.762C152.497 332.762 151.955 332.977 151.526 333.406C151.097 333.826 150.882 334.391 150.882 335.1C150.882 335.809 151.092 336.379 151.512 336.808C151.941 337.228 152.487 337.438 153.15 337.438C153.533 337.438 153.883 337.354 154.2 337.186C154.527 337.009 154.797 336.747 155.012 336.402L156.356 337.186C156.067 337.746 155.642 338.18 155.082 338.488C154.531 338.787 153.892 338.936 153.164 338.936ZM157.869 331.362H159.619V338.838H157.869V331.362ZM158.751 330.13C158.433 330.13 158.167 330.032 157.953 329.836C157.738 329.631 157.631 329.379 157.631 329.08C157.631 328.781 157.738 328.534 157.953 328.338C158.167 328.133 158.433 328.03 158.751 328.03C159.068 328.03 159.334 328.128 159.549 328.324C159.763 328.511 159.871 328.749 159.871 329.038C159.871 329.346 159.763 329.607 159.549 329.822C159.343 330.027 159.077 330.13 158.751 330.13ZM165.276 338.936C164.52 338.936 163.838 338.773 163.232 338.446C162.625 338.119 162.149 337.667 161.804 337.088C161.468 336.5 161.3 335.837 161.3 335.1C161.3 334.363 161.468 333.705 161.804 333.126C162.149 332.547 162.625 332.095 163.232 331.768C163.838 331.441 164.52 331.278 165.276 331.278C166.041 331.278 166.727 331.441 167.334 331.768C167.94 332.095 168.412 332.547 168.748 333.126C169.093 333.705 169.266 334.363 169.266 335.1C169.266 335.837 169.093 336.5 168.748 337.088C168.412 337.667 167.94 338.119 167.334 338.446C166.727 338.773 166.041 338.936 165.276 338.936ZM165.276 337.438C165.92 337.438 166.452 337.223 166.872 336.794C167.292 336.365 167.502 335.8 167.502 335.1C167.502 334.4 167.292 333.835 166.872 333.406C166.452 332.977 165.92 332.762 165.276 332.762C164.632 332.762 164.1 332.977 163.68 333.406C163.269 333.835 163.064 334.4 163.064 335.1C163.064 335.8 163.269 336.365 163.68 336.794C164.1 337.223 164.632 337.438 165.276 337.438ZM175.181 331.278C176.124 331.278 176.88 331.553 177.449 332.104C178.018 332.655 178.303 333.471 178.303 334.554V338.838H176.553V334.778C176.553 334.125 176.399 333.635 176.091 333.308C175.783 332.972 175.344 332.804 174.775 332.804C174.131 332.804 173.622 333 173.249 333.392C172.876 333.775 172.689 334.33 172.689 335.058V338.838H170.939V331.362H172.605V332.328C172.894 331.983 173.258 331.721 173.697 331.544C174.136 331.367 174.63 331.278 175.181 331.278ZM183.379 331.278C184.48 331.278 185.32 331.544 185.899 332.076C186.487 332.599 186.781 333.392 186.781 334.456V338.838H185.129V337.928C184.914 338.255 184.606 338.507 184.205 338.684C183.813 338.852 183.337 338.936 182.777 338.936C182.217 338.936 181.727 338.843 181.307 338.656C180.887 338.46 180.56 338.194 180.327 337.858C180.103 337.513 179.991 337.125 179.991 336.696C179.991 336.024 180.238 335.487 180.733 335.086C181.237 334.675 182.026 334.47 183.099 334.47H185.031V334.358C185.031 333.835 184.872 333.434 184.555 333.154C184.247 332.874 183.785 332.734 183.169 332.734C182.749 332.734 182.334 332.799 181.923 332.93C181.522 333.061 181.181 333.243 180.901 333.476L180.215 332.202C180.607 331.903 181.078 331.675 181.629 331.516C182.18 331.357 182.763 331.278 183.379 331.278ZM183.141 337.662C183.58 337.662 183.967 337.564 184.303 337.368C184.648 337.163 184.891 336.873 185.031 336.5V335.632H183.225C182.217 335.632 181.713 335.963 181.713 336.626C181.713 336.943 181.839 337.195 182.091 337.382C182.343 337.569 182.693 337.662 183.141 337.662ZM190.693 332.454C191.197 331.67 192.084 331.278 193.353 331.278V332.944C193.204 332.916 193.068 332.902 192.947 332.902C192.266 332.902 191.734 333.103 191.351 333.504C190.968 333.896 190.777 334.465 190.777 335.212V338.838H189.027V331.362H190.693V332.454ZM206.013 331.362V338.838H204.347V337.886C204.067 338.222 203.717 338.483 203.297 338.67C202.877 338.847 202.424 338.936 201.939 338.936C200.94 338.936 200.152 338.661 199.573 338.11C199.004 337.55 198.719 336.724 198.719 335.632V331.362H200.469V335.394C200.469 336.066 200.618 336.57 200.917 336.906C201.225 337.233 201.659 337.396 202.219 337.396C202.844 337.396 203.339 337.205 203.703 336.822C204.076 336.43 204.263 335.87 204.263 335.142V331.362H206.013ZM217.74 331.278C218.683 331.278 219.43 331.553 219.98 332.104C220.531 332.645 220.806 333.462 220.806 334.554V338.838H219.056V334.778C219.056 334.125 218.912 333.635 218.622 333.308C218.333 332.972 217.918 332.804 217.376 332.804C216.788 332.804 216.317 333 215.962 333.392C215.608 333.775 215.43 334.325 215.43 335.044V338.838H213.68V334.778C213.68 334.125 213.536 333.635 213.246 333.308C212.957 332.972 212.542 332.804 212 332.804C211.403 332.804 210.927 332.995 210.572 333.378C210.227 333.761 210.054 334.316 210.054 335.044V338.838H208.304V331.362H209.97V332.314C210.25 331.978 210.6 331.721 211.02 331.544C211.44 331.367 211.907 331.278 212.42 331.278C212.98 331.278 213.475 331.385 213.904 331.6C214.343 331.805 214.688 332.113 214.94 332.524C215.248 332.132 215.645 331.829 216.13 331.614C216.616 331.39 217.152 331.278 217.74 331.278ZM225.899 331.278C227 331.278 227.84 331.544 228.419 332.076C229.007 332.599 229.301 333.392 229.301 334.456V338.838H227.649V337.928C227.434 338.255 227.126 338.507 226.725 338.684C226.333 338.852 225.857 338.936 225.297 338.936C224.737 338.936 224.247 338.843 223.827 338.656C223.407 338.46 223.08 338.194 222.847 337.858C222.623 337.513 222.511 337.125 222.511 336.696C222.511 336.024 222.758 335.487 223.253 335.086C223.757 334.675 224.545 334.47 225.619 334.47H227.551V334.358C227.551 333.835 227.392 333.434 227.075 333.154C226.767 332.874 226.305 332.734 225.689 332.734C225.269 332.734 224.853 332.799 224.443 332.93C224.041 333.061 223.701 333.243 223.421 333.476L222.735 332.202C223.127 331.903 223.598 331.675 224.149 331.516C224.699 331.357 225.283 331.278 225.899 331.278ZM225.661 337.662C226.099 337.662 226.487 337.564 226.823 337.368C227.168 337.163 227.411 336.873 227.551 336.5V335.632H225.745C224.737 335.632 224.233 335.963 224.233 336.626C224.233 336.943 224.359 337.195 224.611 337.382C224.863 337.569 225.213 337.662 225.661 337.662ZM235.416 331.362H237.166V338.838H235.416V331.362ZM236.298 330.13C235.98 330.13 235.714 330.032 235.5 329.836C235.285 329.631 235.178 329.379 235.178 329.08C235.178 328.781 235.285 328.534 235.5 328.338C235.714 328.133 235.98 328.03 236.298 328.03C236.615 328.03 236.881 328.128 237.096 328.324C237.31 328.511 237.418 328.749 237.418 329.038C237.418 329.346 237.31 329.607 237.096 329.822C236.89 330.027 236.624 330.13 236.298 330.13ZM248.898 331.278C249.841 331.278 250.588 331.553 251.138 332.104C251.689 332.645 251.964 333.462 251.964 334.554V338.838H250.214V334.778C250.214 334.125 250.07 333.635 249.78 333.308C249.491 332.972 249.076 332.804 248.534 332.804C247.946 332.804 247.475 333 247.12 333.392C246.766 333.775 246.588 334.325 246.588 335.044V338.838H244.838V334.778C244.838 334.125 244.694 333.635 244.404 333.308C244.115 332.972 243.7 332.804 243.158 332.804C242.561 332.804 242.085 332.995 241.73 333.378C241.385 333.761 241.212 334.316 241.212 335.044V338.838H239.462V331.362H241.128V332.314C241.408 331.978 241.758 331.721 242.178 331.544C242.598 331.367 243.065 331.278 243.578 331.278C244.138 331.278 244.633 331.385 245.062 331.6C245.501 331.805 245.846 332.113 246.098 332.524C246.406 332.132 246.803 331.829 247.288 331.614C247.774 331.39 248.31 331.278 248.898 331.278ZM257.057 331.278C258.158 331.278 258.998 331.544 259.577 332.076C260.165 332.599 260.459 333.392 260.459 334.456V338.838H258.807V337.928C258.592 338.255 258.284 338.507 257.883 338.684C257.491 338.852 257.015 338.936 256.455 338.936C255.895 338.936 255.405 338.843 254.985 338.656C254.565 338.46 254.238 338.194 254.005 337.858C253.781 337.513 253.669 337.125 253.669 336.696C253.669 336.024 253.916 335.487 254.411 335.086C254.915 334.675 255.703 334.47 256.777 334.47H258.709V334.358C258.709 333.835 258.55 333.434 258.233 333.154C257.925 332.874 257.463 332.734 256.847 332.734C256.427 332.734 256.011 332.799 255.601 332.93C255.199 333.061 254.859 333.243 254.579 333.476L253.893 332.202C254.285 331.903 254.756 331.675 255.307 331.516C255.857 331.357 256.441 331.278 257.057 331.278ZM256.819 337.662C257.257 337.662 257.645 337.564 257.981 337.368C258.326 337.163 258.569 336.873 258.709 336.5V335.632H256.903C255.895 335.632 255.391 335.963 255.391 336.626C255.391 336.943 255.517 337.195 255.769 337.382C256.021 337.569 256.371 337.662 256.819 337.662ZM270.193 331.362V337.704C270.193 340.336 268.849 341.652 266.161 341.652C265.442 341.652 264.761 341.559 264.117 341.372C263.473 341.195 262.941 340.933 262.521 340.588L263.305 339.272C263.632 339.543 264.042 339.757 264.537 339.916C265.041 340.084 265.55 340.168 266.063 340.168C266.884 340.168 267.486 339.981 267.869 339.608C268.252 339.235 268.443 338.665 268.443 337.9V337.508C268.144 337.835 267.78 338.082 267.351 338.25C266.922 338.418 266.45 338.502 265.937 338.502C265.228 338.502 264.584 338.353 264.005 338.054C263.436 337.746 262.983 337.317 262.647 336.766C262.32 336.215 262.157 335.585 262.157 334.876C262.157 334.167 262.32 333.541 262.647 333C262.983 332.449 263.436 332.025 264.005 331.726C264.584 331.427 265.228 331.278 265.937 331.278C266.478 331.278 266.968 331.367 267.407 331.544C267.855 331.721 268.228 331.992 268.527 332.356V331.362H270.193ZM266.203 337.018C266.866 337.018 267.407 336.822 267.827 336.43C268.256 336.029 268.471 335.511 268.471 334.876C268.471 334.251 268.256 333.742 267.827 333.35C267.407 332.958 266.866 332.762 266.203 332.762C265.531 332.762 264.98 332.958 264.551 333.35C264.131 333.742 263.921 334.251 263.921 334.876C263.921 335.511 264.131 336.029 264.551 336.43C264.98 336.822 265.531 337.018 266.203 337.018ZM279.522 335.142C279.522 335.263 279.512 335.436 279.494 335.66H273.628C273.73 336.211 273.996 336.649 274.426 336.976C274.864 337.293 275.406 337.452 276.05 337.452C276.871 337.452 277.548 337.181 278.08 336.64L279.018 337.718C278.682 338.119 278.257 338.423 277.744 338.628C277.23 338.833 276.652 338.936 276.008 338.936C275.186 338.936 274.463 338.773 273.838 338.446C273.212 338.119 272.727 337.667 272.382 337.088C272.046 336.5 271.878 335.837 271.878 335.1C271.878 334.372 272.041 333.719 272.368 333.14C272.704 332.552 273.166 332.095 273.754 331.768C274.342 331.441 275.004 331.278 275.742 331.278C276.47 331.278 277.118 331.441 277.688 331.768C278.266 332.085 278.714 332.538 279.032 333.126C279.358 333.705 279.522 334.377 279.522 335.142ZM275.742 332.678C275.182 332.678 274.706 332.846 274.314 333.182C273.931 333.509 273.698 333.947 273.614 334.498H277.856C277.781 333.957 277.552 333.518 277.17 333.182C276.787 332.846 276.311 332.678 275.742 332.678ZM290.639 331.278C291.581 331.278 292.328 331.553 292.879 332.104C293.429 332.645 293.705 333.462 293.705 334.554V338.838H291.955V334.778C291.955 334.125 291.81 333.635 291.521 333.308C291.231 332.972 290.816 332.804 290.275 332.804C289.687 332.804 289.215 333 288.861 333.392C288.506 333.775 288.329 334.325 288.329 335.044V338.838H286.579V334.778C286.579 334.125 286.434 333.635 286.145 333.308C285.855 332.972 285.44 332.804 284.899 332.804C284.301 332.804 283.825 332.995 283.471 333.378C283.125 333.761 282.953 334.316 282.953 335.044V338.838H281.203V331.362H282.869V332.314C283.149 331.978 283.499 331.721 283.919 331.544C284.339 331.367 284.805 331.278 285.319 331.278C285.879 331.278 286.373 331.385 286.803 331.6C287.241 331.805 287.587 332.113 287.839 332.524C288.147 332.132 288.543 331.829 289.029 331.614C289.514 331.39 290.051 331.278 290.639 331.278Z" fill="white"/>
<path d="M207 274.701V281.368C207 282.252 206.649 283.1 206.024 283.725C205.399 284.35 204.551 284.701 203.667 284.701H180.333C179.449 284.701 178.601 284.35 177.976 283.725C177.351 283.1 177 282.252 177 281.368V274.701" stroke="white" stroke-width="2.8" stroke-linecap="round" stroke-linejoin="round"/>
<path d="M183.667 263.034L192 254.701L200.333 263.034" stroke="white" stroke-width="2.8" stroke-linecap="round" stroke-linejoin="round"/>
<path d="M192 254.701V274.701" stroke="white" stroke-width="2.8" stroke-linecap="round" stroke-linejoin="round"/>
<g opacity="0.8">
<path d="M146.278 157.157L116.357 198.943C114.461 201.59 116.353 205.272 119.609 205.272H273.823C276.723 205.272 278.659 202.282 277.473 199.636L244.601 126.325C243.388 123.62 239.756 123.128 237.868 125.413L184.648 189.796C183.023 191.761 179.999 191.725 178.422 189.721L152.673 157.012C151.025 154.918 147.829 154.991 146.278 157.157Z" fill="white"/>
<circle cx="183.497" cy="123.645" r="16.8365" fill="white"/>
</g>
<defs>
<linearGradient id="paint0_linear" x1="192" y1="0.701171" x2="207.821" y2="385.154" gradientUnits="userSpaceOnUse">
<stop stop-color="#121212" stop-opacity="0.2"/>
<stop offset="1" stop-color="#121212" stop-opacity="0.8"/>
</linearGradient>
</defs>
</svg>
